<svg width="20" height="20" viewBox="0 0 20 20" fill="none" xmlns="http://www.w3.org/2000/svg">
<path d="M9.57324 0.49221C9.3623 0.58596 9.18262 0.74221 9.08496 0.914085C9.03418 1.00393 8.4873 2.26174 7.87012 3.71096C7.25293 5.16018 6.7373 6.3594 6.72168 6.37502C6.70996 6.39065 5.3623 6.52346 3.72559 6.6719C1.13574 6.91018 0.733398 6.95315 0.59668 7.02346C0.186523 7.2344 -0.000976562 7.53909 -0.000976562 7.99612C-0.000976562 8.32424 0.0810547 8.54299 0.28418 8.75002C0.354492 8.82033 1.37402 9.72268 2.5498 10.7539L4.69043 12.6328L4.66699 12.7696C4.65137 12.8438 4.3623 14.1367 4.01855 15.6367C3.64746 17.2696 3.39746 18.4531 3.39746 18.5742C3.39746 18.8242 3.58105 19.2149 3.76465 19.3555C4.07324 19.5899 4.42871 19.6641 4.78418 19.5664C4.87012 19.543 6.06933 18.8477 7.44824 18.0235C8.82715 17.1992 9.97558 16.5235 9.99902 16.5235C10.0225 16.5235 11.1709 17.1992 12.5498 18.0196C13.9287 18.8438 15.1162 19.5391 15.1904 19.5625C15.6475 19.7188 16.2178 19.4961 16.4561 19.0742C16.6748 18.6758 16.6826 18.7422 15.96 15.5586C15.6045 13.9883 15.3115 12.6875 15.3115 12.6641C15.3115 12.6446 16.2725 11.7852 17.4521 10.7539C18.6279 9.72268 19.6436 8.82033 19.7139 8.75002C19.7842 8.67971 19.8701 8.55862 19.9092 8.48049C19.9912 8.30862 20.0225 7.82815 19.9639 7.64455C19.8506 7.30862 19.5186 7.01955 19.167 6.94924C19.0771 6.92971 17.7217 6.8008 16.1514 6.65627C14.585 6.51565 13.2881 6.38674 13.2764 6.37502C13.2646 6.3594 12.7295 5.11721 12.0889 3.61721C10.8154 0.632835 10.8389 0.675804 10.4443 0.503929C10.2295 0.414085 9.77246 0.406273 9.57324 0.49221Z" fill="#2B2B2D"/>
</svg>
